<?xml version="1.0" encoding="UTF-8"?>
<svg width="660px" height="360px" viewBox="0 0 660 360" version="1.1" xmlns="http://www.w3.org/2000/svg" xmlns:xlink="http://www.w3.org/1999/xlink">
    <!-- Generator: Sketch 52.6 (67491) - http://www.bohemiancoding.com/sketch -->
    <title>Group 4</title>
    <desc>Created with Sketch.</desc>
    <g id="Page-1" stroke="none" stroke-width="1" fill="none" fill-rule="evenodd">
        <g id="Artboard-Copy-8" transform="translate(-1625.000000, -1664.000000)" fill="#000000">
            <g id="Group-4" transform="translate(1625.000000, 1664.000000)">
                <g id="noun_Melbourne_2324115" transform="translate(0.000000, 31.000000)">
                    <path d="M263.791377,281.376995 C263.174947,281.424124 262.572346,281.583829 262.013382,281.84821 C261.869491,281.914137 247.593053,288.519577 238.473814,281.115686 C237.2969,280.160995 235.750805,279.792363 234.270294,280.113451 C232.789784,280.434539 231.534774,281.410665 230.858177,282.76734 C227.987524,288.524352 226.566846,301.786508 241.144479,311.551225 C243.614081,315.582588 247.516406,318.529052 252.067338,319.798568 C252.772922,319.932188 253.489421,319.999624 254.207522,320 C257.061667,319.965712 259.813627,318.931672 261.985283,317.07753 C262.276646,316.843249 262.540522,316.576645 262.771851,316.282829 C265.653469,312.631585 271.428919,306.16775 274.658089,304.369592 C275.536544,303.880559 276.246844,303.137209 276.695843,302.237023 C277.483635,300.659821 281.206645,292.484506 277.111681,286.363707 C275.375297,283.768347 271.644819,280.797151 263.791377,281.376995 Z M268.249728,296.605765 C263.450645,300.397478 259.119492,304.747474 255.347661,309.563961 C254.963206,309.904059 254.447285,310.054879 253.940395,309.975349 C252.329395,309.676264 250.101468,307.162758 249.124677,305.483028 C248.717051,304.765081 248.138022,304.159443 247.439371,303.720271 C241.551725,300.021426 239.583507,296.019821 239.121312,292.867868 C250.107587,297.008628 261.876759,292.761665 265.333992,291.307817 C267.775395,291.24799 268.700858,291.765607 268.810756,291.927837 C269.132384,293.506907 268.935624,295.147736 268.249803,296.605765 L268.249728,296.605765 Z" id="Shape" fill-rule="nonzero"></path>
                    <path d="M318.975063,158.344001 C316.972665,163.288245 314.499267,168.027103 311.589263,172.494676 C311.270264,173.007814 310.069781,174.939845 308.279125,177.821403 C307.378999,187.659127 305.628043,196.654896 302.786958,199.671801 C302.724903,199.737725 302.66529,199.806073 302.606873,199.874422 C301.588419,201.081669 278.277065,228.853256 273.996373,246.751994 C267.603333,247.38198 257.924952,249.138415 252.164651,254.021102 C249.00787,250.031289 244.438302,247.416967 239.40778,246.722695 C238.942972,246.679979 238.479775,246.658822 238.01819,246.659221 C234.024352,246.752871 230.186088,248.231049 227.155874,250.842475 C223.375395,248.321413 218.800507,247.28827 214.307739,247.940992 C211.177687,243.928601 209.601359,238.915269 209.870089,233.827541 C210.097008,230.337091 208.045714,227.100735 204.798503,225.826025 L200.50323,224.175663 L200.716137,210.026863 C200.770916,207.224333 199.360444,204.597195 196.997605,203.100748 C194.726056,201.63668 191.856493,201.471371 189.432792,202.664958 C185.779979,204.456916 181.833911,208.625521 177.410865,215.370966 C175.717135,212.128637 174.389897,208.706607 173.453856,205.168575 C173.258847,204.499721 172.978702,203.858872 172.620347,203.261869 C171.218595,200.936472 163.547939,189.183817 150.161967,186.118713 C141.380372,184.110709 132.193573,186.176086 122.820584,192.273346 C117.990576,194.531161 112.664549,195.510339 107.350252,195.117531 C104.456114,193.815304 101.142483,193.829547 98.2595769,195.156605 C94.4835384,197.278499 91.8771322,201.010724 91.1790443,205.295522 C91.0238188,205.651457 90.9723431,206.044236 91.0305852,206.428321 C90.8492791,208.957563 86.5758882,213.527758 71.6604401,212.708702 C70.7951634,212.660622 69.9279374,212.757152 69.0942174,212.994345 C60.618715,215.517146 52.738556,219.731306 45.9264884,225.38401 C42.6739942,227.291917 38.8350152,228.402741 37.4600296,227.825354 C37.1631362,227.699632 36.9489832,227.243093 36.8090473,226.815853 L36.8090473,202.445163 C36.8134339,200.093739 35.7879609,197.859061 34.0043479,196.333253 L22.2987778,186.330983 L22.2987778,173.738547 C22.304106,171.680808 21.5183127,169.700235 20.1048868,168.208899 L10.3437654,157.886862 L13.5865153,150.723951 C14.5731841,148.556534 14.5468692,146.061029 13.5147156,143.915033 C12.260202,141.306443 8.42241924,132.118429 11.7235858,123.408904 C14.0744343,117.206546 19.6765558,112.218986 28.379074,108.582595 C28.6254042,108.480588 28.8658591,108.364852 29.099314,108.235928 C36.47674,104.146672 46.1599808,99.7912967 49.5730961,99.7754221 C50.9457759,99.7886848 52.2996247,99.4544971 53.5094196,98.8037694 C70.5567034,89.4094603 71.7808124,83.3378248 71.8684125,80.8683816 L74.0708018,69.2902727 L76.5129139,69.7712116 C78.5783344,70.1847774 80.7226371,69.7393967 82.4545203,68.537115 C84.2308445,67.3015276 85.4405496,65.4044228 85.8139789,63.268686 C86.6949396,58.221302 90.1603408,48.8647171 103.397879,41.9691755 C108.961073,45.8777857 120.690966,52.3327124 130.225773,45.6153417 C131.454801,44.7404745 132.405209,43.5275574 132.962336,42.122922 C134.342431,38.7099004 142.077634,21.8768123 161.48424,18.2416208 C162.991877,20.7230127 165.736637,22.1729128 168.62932,22.0159591 L182.014071,21.2933257 L176.183117,36.5297755 C174.940488,39.7576307 175.900257,43.4209878 178.564395,45.6189167 L210.523514,71.9525365 C211.029315,72.3693932 211.58478,72.7216071 212.17715,73.0010874 C215.395982,74.4793943 219.079638,74.5628433 222.361717,73.2318071 C227.393155,71.2286781 231.525463,66.2007187 234.642832,58.2895255 C235.022163,57.3325615 235.21546,56.3116297 235.212295,55.2817946 C235.178227,44.4470436 236.43274,25.3728069 240.984757,14.1279654 C241.529871,17.9169533 242.076332,23.4477512 242.478968,31.5018411 C242.485049,31.6422129 242.5167,32.0169543 242.534943,32.1561261 C243.412495,39.4718959 248.503095,45.5828883 255.524185,47.7490177 C261.709277,52.6317962 265.246092,60.1473627 265.073446,68.0407514 C268.392785,68.4506508 271.677179,69.1073513 274.899514,70.0054312 C276.582184,52.2758387 263.841711,41.5241858 261.210268,39.5155569 C260.405808,38.9065142 259.490153,38.4615294 258.515075,38.205762 C255.25039,37.2321844 252.866321,34.4173271 252.435975,31.028202 C252.254317,22.5833359 251.282714,14.1742253 249.533956,5.91155419 C248.754455,2.92412806 246.310569,0.666556111 243.27841,0.132911991 C240.299748,-0.426423731 237.269542,0.808506516 235.523767,3.29323936 C225.812539,16.9429257 225.243076,47.8869395 225.244297,54.9375525 C222.477305,61.7977449 219.743159,63.5164554 218.684556,63.9375957 C218.029381,64.2181267 217.295264,64.2519406 216.617218,64.0328185 L185.991715,38.7990234 L192.415184,22.0159591 C193.396423,19.4706858 193.02005,16.5995644 191.416194,14.3952842 C189.843879,12.2269235 187.286157,11.0018607 184.616654,11.1385341 L169.451739,11.9576152 C167.847821,9.17209014 164.717589,7.64353045 161.542582,8.095404 C136.692033,11.7549699 126.338371,32.2378992 123.977778,37.7565723 C118.756511,40.6385811 110.024785,34.4741478 108.273829,33.1680528 C105.929599,31.4064435 102.798775,31.1117381 100.168761,32.4051203 C83.245588,40.68863 78.0207576,53.0149967 76.4133015,59.5602463 L73.9395636,59.0719825 C71.8701825,58.6721208 69.7272755,59.1166088 67.985694,60.3069514 C66.2441125,61.497294 65.0476745,63.3351939 64.6615014,65.4133868 L61.9967131,79.4218648 C61.9565738,79.631936 61.929754,79.844349 61.916415,80.0578252 C61.2544671,81.5507159 56.9786588,85.4239019 49.1729267,89.7829517 C41.9159727,90.0454457 28.5786727,97.1070084 24.4221152,99.4043056 C13.164315,104.134422 5.75645952,111.014139 2.40539953,119.855511 C-1.91544247,131.257749 1.87244683,142.386743 4.13933376,147.407377 L0.728660822,154.942579 C-0.635160319,157.921046 -0.0513690727,161.432574 2.20218717,163.805901 L12.3307805,174.516104 L12.3307805,187.235537 C12.3261077,189.586952 13.3521941,191.821534 15.136726,193.346247 L26.8410749,203.347242 L26.8410749,227.489762 C26.8409715,227.879458 26.8863049,228.267829 26.9761511,228.64696 C27.6477281,232.375766 30.127878,235.523494 33.5894248,237.040318 C40.1211794,239.803929 48.1094387,235.729323 51.2171374,233.862891 C51.5883709,233.642792 51.9390176,233.389493 52.2648,233.106083 C57.9294208,228.411808 64.4588737,224.880557 71.4816511,222.713247 C83.0691915,223.301608 91.479676,221.110509 96.50259,216.222921 C98.9909338,213.882387 100.568214,210.73031 100.952402,207.3303 C101.574176,205.089152 102.320086,204.292045 102.567086,204.173623 C102.891651,204.134915 103.220309,204.195329 103.510102,204.346969 C104.317987,204.72023 105.182534,204.955003 106.067801,205.041528 C113.439703,205.70794 120.853193,204.344759 127.510144,201.098744 C127.659799,201.021845 128.009029,200.816775 128.148965,200.724002 C135.200289,196.109858 141.862235,194.474146 147.943777,195.868164 C157.147622,197.97504 162.890876,206.516119 163.959224,208.222605 C166.492599,216.790533 169.259592,222.298206 172.414717,225.058168 C174.136052,226.561916 176.429353,227.230591 178.686064,226.886751 C181.004207,226.532498 183.049322,225.172486 184.277244,223.168586 C186.134174,220.02542 188.278474,217.062289 190.682446,214.317465 L190.515645,225.40241 C190.464759,228.756151 192.498051,231.788046 195.614022,233.004735 L199.859425,234.635548 C199.781642,242.299118 202.529534,249.721263 207.575215,255.476144 C209.549783,257.750339 212.64688,258.691627 215.547699,257.899188 C218.130726,257.522438 220.752445,258.254963 222.769363,259.916967 C225.772557,262.073181 229.870724,261.825207 232.593761,259.322505 C234.108466,257.655455 236.247914,256.698019 238.49644,256.680966 C241.527479,256.96051 244.316378,260.058564 245.708385,261.881047 C247.134272,263.765058 249.327554,264.907988 251.684059,264.995 C251.77774,264.99865 251.870225,265 251.963931,265 C254.2786,264.991703 256.477961,263.985432 258.001661,262.237563 C260.434029,259.482502 267.635033,257.262103 276.34605,256.582168 C279.919617,256.286891 282.847778,253.616435 283.480114,250.075968 C285.760459,237.526256 303.422165,214.404288 310.138964,206.425846 C318.944608,196.837166 319.117391,166.953428 318.975063,158.344001 Z" id="Path"></path>
                    <path d="M199,134.620348 C199.112127,145.596852 202.353827,156.313544 208.344489,165.512166 L208.377441,165.491416 C209.883777,167.974275 216.963874,179.280265 252.2617,235.653839 C253.17603,237.113618 254.777391,238.000073 256.499987,238 L256.503638,238 C258.228365,237.99874 259.830682,237.108785 260.743125,235.645314 C260.743125,235.645314 302.845153,168.104898 303.124774,167.656881 C307.920637,160.479014 311.296144,152.448528 313.068606,144.000044 C313.677831,140.909959 313.989719,137.768639 314,134.619098 C313.517866,103.209417 287.915634,77.9996654 256.499422,78 C225.083209,78.0003346 199.481515,103.210631 199.00005,134.620323 L199,134.620348 Z M303.999938,134.619123 C303.989979,137.127917 303.739405,139.629973 303.251658,142.090926 C301.725212,149.278752 298.835392,156.107507 294.738531,162.20777 C294.716554,162.24317 294.683526,162.294444 256.490262,223.562962 C245.528429,206.05595 217.11531,160.679495 216.818663,160.204653 C211.833778,152.592837 209.121653,143.718126 209.000062,134.620348 C209.482992,108.734738 230.606989,88.002728 256.499436,88.0023941 C282.391883,88.0020603 303.516415,108.733526 304.000013,134.619123 L303.999938,134.619123 Z" id="Shape" fill-rule="nonzero"></path>
                    <path d="M229,132.50205 C229.001132,147.689614 241.313803,160.000755 256.501367,160 C271.68893,159.999245 284.000377,147.68688 284,132.499317 C283.999623,117.311753 271.687564,105 256.5,105 C241.318692,105.017665 229.016533,117.320741 229,132.50205 Z M274.00003,132.50205 C273.999312,142.166867 266.163975,150.001233 256.499158,150.000755 C246.834342,150.000276 238.999781,142.165133 239.000021,132.500317 C239.00026,122.8355 246.835209,115.000746 256.500025,115.000746 C266.16087,115.011948 273.989534,122.841204 274.000005,132.50205 L274.00003,132.50205 Z" id="Shape" fill-rule="nonzero"></path>
                </g>
                <g id="noun_Melbourne_131554" transform="translate(393.000000, 0.000000)" fill-rule="nonzero">
                    <path d="M65.8486635,310.955027 C65.8486635,308.69242 67.6799504,306.863514 69.9363575,306.863514 L102.63791,306.863514 C104.894317,306.863514 106.725604,308.69242 106.725604,310.955027 C106.725604,313.217634 104.894317,315.046541 102.63791,315.046541 L69.9363575,315.046541 C67.6799504,315.046541 65.8486635,313.217634 65.8486635,310.955027 Z M69.9363575,331.412595 L102.63791,331.412595 C104.894317,331.412595 106.725604,329.583688 106.725604,327.321082 C106.725604,325.058475 104.894317,323.229568 102.63791,323.229568 L69.9363575,323.229568 C67.6799504,323.229568 65.8486635,325.058475 65.8486635,327.321082 C65.8486635,329.583688 67.6799504,331.412595 69.9363575,331.412595 Z M267,226.371168 C267.008175,300.055235 207.11937,360 133.504088,360 C104.698108,360 78.0177287,350.790003 56.181267,335.201337 C55.580376,334.964029 55.0735019,334.583518 54.6524695,334.112994 C21.5421476,309.77258 0,270.551331 0,226.371168 C0,173.079205 31.5651735,124.934365 80.4172051,103.723959 C82.4814906,102.823826 84.8973177,103.777149 85.7925227,105.851546 C86.6918154,107.925944 85.7393827,110.335845 83.6669218,111.231887 C37.8029946,131.145283 8.17130041,176.340141 8.17130041,226.371168 C8.17130041,265.1669 25.8628403,299.899758 53.5855813,322.926796 L53.5855813,180.026595 C53.5855813,177.768079 55.4168682,175.935081 57.6732754,175.935081 L94.4625218,175.935081 L94.4625218,16.3660541 C94.4625218,14.1075386 96.2938088,12.2745406 98.5502159,12.2745406 L110.813298,12.2745406 L110.813298,4.09151352 C110.813298,1.83299806 112.644585,0 114.900992,0 L172.128709,0 C174.389204,0 176.216403,1.83299806 176.216403,4.09151352 L176.216403,10.2287838 L176.216403,65.4642163 L176.216403,135.019946 L196.654873,135.019946 C198.915368,135.019946 200.742567,136.852944 200.742567,139.11146 L200.742567,332.149067 C235.626948,309.850319 258.8287,270.784548 258.8287,226.371168 C258.8287,176.291043 229.156128,131.079819 183.230886,111.18688 C181.158425,110.286747 180.21008,107.880937 181.101197,105.80654 C182.00049,103.732142 184.416317,102.791094 186.476515,103.674861 C235.39395,124.86481 267,173.026015 267,226.371168 Z M118.988686,61.3727028 L121.065235,61.3727028 L123.07638,56.7942992 L123.07638,20.4575676 C123.07638,18.1990521 124.907667,16.3660541 127.164074,16.3660541 L143.51485,16.3660541 C143.523026,16.3660541 143.535289,16.3701456 143.543464,16.3701456 C143.584341,16.3701456 143.625218,16.3824201 143.666095,16.3865116 C144.128005,16.4028777 144.565388,16.509257 144.982333,16.6729176 C145.03956,16.6933752 145.100876,16.6851921 145.158103,16.7097412 C145.194893,16.7261073 145.219419,16.7629309 145.256208,16.7792969 C145.681328,16.9797811 146.069659,17.249821 146.40485,17.5894166 C146.470253,17.6548808 146.519306,17.7285281 146.580621,17.7980838 C146.703252,17.9412868 146.838146,18.0681237 146.944426,18.2276927 C147.075232,18.4281769 147.156986,18.6450271 147.251003,18.8577858 C147.275529,18.915067 147.312318,18.9682567 147.332757,19.0296294 C147.500352,19.4715128 147.573931,19.9338539 147.582106,20.4043779 C147.582106,20.4902997 147.573931,20.5762215 147.569843,20.6662348 C147.545317,21.1613079 147.459475,21.6563811 147.251003,22.1228136 L146.923987,22.8551945 L129.992759,61.3727028 L151.690239,61.3727028 L151.690239,45.0066487 C151.690239,42.7481332 153.517438,40.9151352 155.777933,40.9151352 C158.038427,40.9151352 159.865627,42.7481332 159.865627,45.0066487 L159.865627,61.3727028 L168.041015,61.3727028 L168.041015,10.2287838 L168.041015,8.18302704 L118.988686,8.18302704 L118.988686,61.3727028 Z M137.223889,24.5490811 L131.251768,24.5490811 L131.251768,38.0019776 L137.223889,24.5490811 Z M102.63791,103.290259 L117.468064,69.5557298 L114.900992,69.5557298 C112.644585,69.5557298 110.813298,67.7227318 110.813298,65.4642163 L110.813298,20.4575676 L102.63791,20.4575676 L102.63791,103.290259 Z M110.813298,298.680487 L61.7609694,298.680487 L61.7609694,329.141805 C76.1905294,339.264209 92.8356196,346.412084 110.813298,349.718027 L110.813298,298.680487 Z M110.813298,249.582325 L61.7609694,249.582325 L61.7609694,290.49746 L110.813298,290.49746 L110.813298,249.582325 Z M110.813298,200.484162 L61.7609694,200.484162 L61.7609694,241.399298 L110.813298,241.399298 L110.813298,200.484162 Z M110.813298,184.118108 L61.7609694,184.118108 L61.7609694,192.301135 L110.813298,192.301135 L110.813298,184.118108 Z M168.269926,346.866242 C168.159558,346.502097 168.041015,346.133861 168.041015,345.732892 L168.041015,69.5557298 L159.865627,69.5557298 L159.865627,81.8302704 C159.865627,84.0887858 158.038427,85.9217839 155.777933,85.9217839 C153.517438,85.9217839 151.690239,84.0887858 151.690239,81.8302704 L151.690239,69.5557298 L126.395588,69.5557298 L113.80549,98.1963245 L155.777933,98.1963245 C159.873802,98.1963245 159.861539,98.1963245 159.865627,98.1963245 C162.117946,98.1963245 163.945145,100.029323 163.953321,102.287838 C163.961496,104.546353 162.122034,106.371168 159.865627,106.379351 L110.813298,106.379351 C110.813298,106.379351 110.568036,106.379351 110.208319,106.379351 L106.611149,114.562379 L139.427156,114.562379 C141.687651,114.562379 143.51485,116.395377 143.51485,118.653892 C143.51485,120.912408 141.687651,122.745406 139.427156,122.745406 L103.013978,122.745406 L102.63791,123.600532 L102.63791,130.928433 L159.865627,130.928433 C162.126121,130.928433 163.953321,132.761431 163.953321,135.019946 C163.953321,137.278462 162.126121,139.11146 159.865627,139.11146 L102.63791,139.11146 L102.63791,147.294487 L139.427156,147.294487 C141.687651,147.294487 143.51485,149.127485 143.51485,151.386 C143.51485,153.644516 141.687651,155.477514 139.427156,155.477514 L102.63791,155.477514 L102.63791,163.660541 L159.865627,163.660541 C162.126121,163.660541 163.953321,165.493539 163.953321,167.752054 C163.953321,170.01057 162.126121,171.843568 159.865627,171.843568 L102.63791,171.843568 L102.63791,175.935081 L114.900992,175.935081 C117.157399,175.935081 118.988686,177.768079 118.988686,180.026595 L139.427156,180.026595 C141.687651,180.026595 143.51485,181.859593 143.51485,184.118108 C143.51485,186.376624 141.687651,188.209622 139.427156,188.209622 L118.988686,188.209622 L118.988686,196.392649 L159.865627,196.392649 C162.126121,196.392649 163.953321,198.221555 163.953321,200.484162 C163.953321,202.746769 162.126121,204.575676 159.865627,204.575676 L118.988686,204.575676 L118.988686,212.758703 L139.427156,212.758703 C141.687651,212.758703 143.51485,214.58761 143.51485,216.850217 C143.51485,219.112823 141.687651,220.94173 139.427156,220.94173 L118.988686,220.94173 L118.988686,229.124757 L159.865627,229.124757 C162.126121,229.124757 163.953321,230.953664 163.953321,233.216271 C163.953321,235.478878 162.126121,237.307784 159.865627,237.307784 L118.988686,237.307784 L118.988686,245.490811 L139.427156,245.490811 C141.687651,245.490811 143.51485,247.319718 143.51485,249.582325 C143.51485,251.844932 141.687651,253.673838 139.427156,253.673838 L118.988686,253.673838 L118.988686,261.856865 L159.865627,261.856865 C162.126121,261.856865 163.953321,263.685772 163.953321,265.948379 C163.953321,268.210986 162.126121,270.039892 159.865627,270.039892 L118.988686,270.039892 L118.988686,278.222919 L139.427156,278.222919 C141.687651,278.222919 143.51485,280.051826 143.51485,282.314433 C143.51485,284.57704 141.687651,286.405946 139.427156,286.405946 L118.988686,286.405946 L118.988686,294.588973 L159.865627,294.588973 C162.126121,294.588973 163.953321,296.41788 163.953321,298.680487 C163.953321,300.943094 162.126121,302.772 159.865627,302.772 L118.988686,302.772 L118.988686,310.955027 L139.427156,310.955027 C141.687651,310.955027 143.51485,312.783934 143.51485,315.046541 C143.51485,317.309148 141.687651,319.138054 139.427156,319.138054 L118.988686,319.138054 L118.988686,327.321082 L159.865627,327.321082 C162.126121,327.321082 163.953321,329.149988 163.953321,331.412595 C163.953321,333.675202 162.126121,335.504109 159.865627,335.504109 L118.988686,335.504109 L118.988686,350.949572 C123.754937,351.501926 128.590679,351.816973 133.5,351.816973 C145.562785,351.816973 157.220889,350.065805 168.269926,346.866242 Z M192.836967,336.837942 C192.68981,336.412425 192.567179,335.978724 192.567179,335.504109 L192.567179,143.202973 L176.216403,143.202973 L176.216403,344.304954 C181.963701,342.214191 187.514789,339.710184 192.836967,336.837942 Z M69.9363575,233.216271 L102.63791,233.216271 C104.894317,233.216271 106.725604,231.387364 106.725604,229.124757 C106.725604,226.86215 104.894317,225.033244 102.63791,225.033244 L69.9363575,225.033244 C67.6799504,225.033244 65.8486635,226.86215 65.8486635,229.124757 C65.8486635,231.387364 67.6799504,233.216271 69.9363575,233.216271 Z M69.9363575,265.948379 L102.63791,265.948379 C104.894317,265.948379 106.725604,264.119472 106.725604,261.856865 C106.725604,259.594258 104.894317,257.765352 102.63791,257.765352 L69.9363575,257.765352 C67.6799504,257.765352 65.8486635,259.594258 65.8486635,261.856865 C65.8486635,264.119472 67.6799504,265.948379 69.9363575,265.948379 Z M69.9363575,282.314433 L102.63791,282.314433 C104.894317,282.314433 106.725604,280.485526 106.725604,278.222919 C106.725604,275.960312 104.894317,274.131406 102.63791,274.131406 L69.9363575,274.131406 C67.6799504,274.131406 65.8486635,275.960312 65.8486635,278.222919 C65.8486635,280.485526 67.6799504,282.314433 69.9363575,282.314433 Z M69.9363575,216.850217 L102.63791,216.850217 C104.894317,216.850217 106.725604,215.02131 106.725604,212.758703 C106.725604,210.496096 104.894317,208.667189 102.63791,208.667189 L69.9363575,208.667189 C67.6799504,208.667189 65.8486635,210.496096 65.8486635,212.758703 C65.8486635,215.02131 67.6799504,216.850217 69.9363575,216.850217 Z" id="Shape"></path>
                </g>
            </g>
        </g>
    </g>
</svg>