<?xml version="1.0" encoding="UTF-8"?>
<svg width="606px" height="379px" viewBox="0 0 606 379" version="1.1" xmlns="http://www.w3.org/2000/svg" xmlns:xlink="http://www.w3.org/1999/xlink">
    <!-- Generator: Sketch 52.6 (67491) - http://www.bohemiancoding.com/sketch -->
    <title>noun_macbook_2814563</title>
    <desc>Created with Sketch.</desc>
    <g id="Page-1" stroke="none" stroke-width="1" fill="none" fill-rule="evenodd">
        <g id="Artboard-Copy-8" transform="translate(-222.000000, -11541.000000)" fill="#FFFFFF">
            <g id="Group-6" transform="translate(221.000000, 11541.000000)">
                <g id="noun_macbook_2814563" transform="translate(0.500000, 0.000000)">
                    <g id="Group" transform="translate(0.500000, 0.000000)">
                        <path d="M53.8837728,348.328195 L546.372038,348.328195 C550.87917,348.328195 554.579055,344.69553 554.579055,340.121063 L554.579055,31.6136069 C554.579055,14.392083 540.654035,0.466866397 523.432754,0.466866397 L76.8230568,0.466866397 C59.6017761,0.466866397 45.6767562,14.392083 45.6767562,31.6136069 L45.6767562,340.053791 C45.6767562,344.628258 49.3766407,348.328195 53.8837728,348.328195 Z M70.2978059,34.9099142 L529.958005,34.9099142 L529.958005,313.817876 L70.2978059,313.817876 L70.2978059,34.9099142 Z" id="Shape" fill-rule="nonzero"></path>
                        <path d="M600.255811,356.535328 L5.17983833,356.535328 C2.28720134,356.535328 0,358.015302 0,359.898907 C0,370.191458 13.0505018,378.533134 29.1281818,378.533134 L576.374738,378.533134 C592.452418,378.533134 605.50292,370.191458 605.50292,359.898907 C605.435649,358.015302 603.081177,356.535328 600.255811,356.535328 Z" id="Path"></path>
                    </g>
                </g>
            </g>
        </g>
    </g>
</svg>