<?xml version="1.0" encoding="UTF-8"?>
<svg width="740px" height="143px" viewBox="0 0 740 143" version="1.1" xmlns="http://www.w3.org/2000/svg" xmlns:xlink="http://www.w3.org/1999/xlink">
    <!-- Generator: Sketch 52.6 (67491) - http://www.bohemiancoding.com/sketch -->
    <title>Group Copy 6</title>
    <desc>Created with Sketch.</desc>
    <defs>
        <linearGradient x1="0%" y1="100%" x2="88.6041358%" y2="100%" id="linearGradient-1">
            <stop stop-color="#000000" offset="0%"></stop>
            <stop stop-color="#FFFFFF" offset="100%"></stop>
        </linearGradient>
        <path d="M182.907829,119.623972 C220.28246,141.207991 159.313184,147.329595 0,137.988786 C36.0600816,138.515472 68.0650891,120.490241 96.0150225,83.9130925 C137.939923,29.0473697 151.111847,1.01943122e-13 176.557709,9.9475983e-14 C202.00357,9.9475983e-14 178.276736,58.1314138 254.163979,96" id="path-2"></path>
        <linearGradient x1="89.8097899%" y1="34.3410066%" x2="50%" y2="100%" id="linearGradient-4">
            <stop stop-color="#000000" stop-opacity="0.665138134" offset="0%"></stop>
            <stop stop-color="#000000" stop-opacity="0.262483016" offset="100%"></stop>
        </linearGradient>
    </defs>
    <g id="Page-1" stroke="none" stroke-width="1" fill="none" fill-rule="evenodd">
        <g id="Artboard" transform="translate(-218.000000, -520.000000)">
            <g id="Group-Copy-6" transform="translate(218.000000, 505.000000)">
                <g id="Path-3-Copy-7" transform="translate(0.000000, 15.000000)">
                    <mask id="mask-3" fill="white">
                        <use xlink:href="#path-2"></use>
                    </mask>
                    <use id="Mask" fill="url(#linearGradient-1)" xlink:href="#path-2"></use>
                    <path d="M38,113.848546 C145.395904,125.169028 187.135028,119.509985 163.21737,96.8714172 C127.340885,62.9135647 192.472631,76.9431805 207.2792,35.3901985 C222.085768,-6.16278358 189.478043,18.9175044 210.350045,-1.17232584 C224.264713,-14.565546 212.745307,-18.2294539 175.791828,-12.1640496" id="Path-3-Copy" stroke="url(#linearGradient-4)" stroke-width="10" mask="url(#mask-3)"></path>
                </g>
                <text id="bellcurve" font-family="Cookie-Regular, Cookie" font-size="192" font-weight="normal" fill="#FFFFFF">
                    <tspan x="240.2" y="151">bellcurve</tspan>
                </text>
            </g>
        </g>
    </g>
</svg>