<?xml version="1.0" encoding="UTF-8"?>
<svg width="562px" height="282px" viewBox="0 0 562 282" version="1.1" xmlns="http://www.w3.org/2000/svg" xmlns:xlink="http://www.w3.org/1999/xlink">
    <!-- Generator: Sketch 52.6 (67491) - http://www.bohemiancoding.com/sketch -->
    <title>Group 5</title>
    <desc>Created with Sketch.</desc>
    <g id="Page-1" stroke="none" stroke-width="1" fill="none" fill-rule="evenodd">
        <g id="Artboard-Copy-8" transform="translate(-191.000000, -2807.000000)" fill="#000000">
            <g id="Group-5" transform="translate(191.000000, 2807.000000)">
                <g id="noun_simple-flag_2165181" transform="translate(334.000000, 0.000000)" fill-rule="nonzero">
                    <path d="M227.366117,97.7250764 L169.485429,2.26109461 C168.677131,0.936580177 167.222887,0.0890526241 165.617024,0.00660428175 C164.01116,-0.0758440606 162.469729,0.617879287 161.516694,1.85196326 C141.618716,28.1272878 109.028024,38.2191944 77.3916707,47.7201335 C45.7553176,57.2210727 16.9819829,66.1765033 0.710495103,89.6333674 C-0.236831701,91.0964526 -0.236831701,92.9434813 0.710495103,94.4065665 L59.0683531,190.916106 L112.749948,279.561232 C113.56239,281.040826 115.160902,281.976982 116.913492,281.999582 C118.666082,282.022181 120.290604,281.127585 121.144785,279.669483 C121.998965,278.21138 121.945292,276.424509 121.004984,275.015328 L68.8980495,188.915908 C83.6425941,169.868571 110.50725,161.640485 138.946566,152.548677 C172.348447,142.184016 206.800101,131.455683 227.175249,102.543734 C228.20152,101.104648 228.275627,99.2337542 227.366117,97.7250764 Z M135.988113,144.047837 C107.35793,152.866891 80.5409909,161.231354 63.7446164,180.415068 L10.3493236,92.3609098 C25.1893022,73.2226544 52.0062411,65.0854864 80.302406,56.40281 C111.175288,46.9473299 142.859358,37.2190955 164.761448,12.6257555 L217.584137,99.9980283 C198.735933,124.50045 166.717844,134.45598 135.988113,144.047837 Z" id="Shape"></path>
                </g>
                <g id="noun_simple-map_2665670" transform="translate(0.000000, 16.000000)">
                    <g id="Group">
                        <path d="M256.65,20.8333333 L71.38785,20.8333333 C66.0645347,8.25574938 53.3189939,0.0190928015 39.15,-1.11022302e-15 L34.8,-1.11022302e-15 C15.5894347,0.0206661856 0.0215754978,14.9324087 -1.11022302e-15,33.3333333 L-1.11022302e-15,245.833333 C-1.44328993e-16,248.13452 1.94756134,250 4.35,250 L256.65,250 C259.052439,250 261,248.13452 261,245.833333 L261,25 C261,22.6988135 259.052439,20.8333333 256.65,20.8333333 Z M8.7,33.3333333 C8.7143871,19.5319268 20.3913316,8.34711408 34.8,8.33333333 L39.15,8.33333333 C53.5586684,8.34711408 65.2356129,19.5319268 65.25,33.3333333 L65.25,223.858333 C58.6660574,216.645538 49.1525773,212.505412 39.15,212.5 L34.8,212.5 C24.7974227,212.505412 15.2839426,216.645538 8.7,223.858333 L8.7,33.3333333 Z M9.06105,241.666667 C11.2005228,229.645668 22.0690285,220.848604 34.8,220.833333 L39.15,220.833333 C51.8809715,220.848604 62.7494772,229.645668 64.88895,241.666667 L9.06105,241.666667 Z M252.3,241.666667 L73.95,241.666667 L73.95,29.1666667 L252.3,29.1666667 L252.3,241.666667 Z" id="Shape" fill-rule="nonzero"></path>
                        <path d="M100.05,87.5 L160.95,87.5 C168.157316,87.5 174,93.0964406 174,100 C174,106.903559 168.157316,112.5 160.95,112.5 L139.2,112.5 C117.578052,112.5 100.05,129.289322 100.05,150 C100.05,170.710678 117.578052,187.5 139.2,187.5 L165.3,187.5 C172.507316,187.5 178.35,193.096441 178.35,200 L178.35,208.333333 C178.35,215.236893 184.192684,220.833333 191.4,220.833333 L230.55,220.833333 L230.55,212.5 L191.4,212.5 C188.997561,212.5 187.05,210.63452 187.05,208.333333 L187.05,200 C187.035618,188.499779 177.306231,179.180442 165.3,179.166667 L139.2,179.166667 C122.382929,179.166667 108.75,166.108305 108.75,150 C108.75,133.891695 122.382929,120.833333 139.2,120.833333 L160.95,120.833333 C172.962193,120.833333 182.7,111.505932 182.7,100 C182.7,88.4940677 172.962193,79.1666667 160.95,79.1666667 L100.05,79.1666667 L100.05,87.5 Z" id="Path"></path>
                        <polygon id="Path" points="236.17455 184.554167 230.55 189.941667 224.92545 184.554167 218.77455 190.445833 224.3991 195.833333 218.77455 201.220833 224.92545 207.1125 230.55 201.725 236.17455 207.1125 242.32545 201.220833 236.7009 195.833333 242.32545 190.445833"></polygon>
                        <path d="M100.05,70.8333333 C109.659755,70.8333333 117.45,63.3714125 117.45,54.1666667 C117.45,44.9619208 109.659755,37.5 100.05,37.5 C90.4402454,37.5 82.65,44.9619208 82.65,54.1666667 C82.65,63.3714125 90.4402454,70.8333333 100.05,70.8333333 Z M100.05,45.8333333 C104.854877,45.8333333 108.75,49.5642938 108.75,54.1666667 C108.75,58.7690396 104.854877,62.5 100.05,62.5 C95.2451227,62.5 91.35,58.7690396 91.35,54.1666667 C91.35,49.5642938 95.2451227,45.8333333 100.05,45.8333333 Z" id="Shape" fill-rule="nonzero"></path>
                        <path d="M195.75,79.1666667 L239.25,79.1666667 C241.652439,79.1666667 243.6,77.3011865 243.6,75 L243.6,41.6666667 C243.6,39.3654802 241.652439,37.5 239.25,37.5 L195.75,37.5 C193.347561,37.5 191.4,39.3654802 191.4,41.6666667 L191.4,75 C191.4,77.3011865 193.347561,79.1666667 195.75,79.1666667 Z M200.1,45.8333333 L234.9,45.8333333 L234.9,70.8333333 L200.1,70.8333333 L200.1,45.8333333 Z" id="Shape" fill-rule="nonzero"></path>
                        <rect id="Rectangle" x="191.4" y="87.5" width="8.7" height="8.33333333"></rect>
                        <rect id="Rectangle" x="208.8" y="87.5" width="34.8" height="8.33333333"></rect>
                        <rect id="Rectangle" x="191.4" y="104.166667" width="34.8" height="8.33333333"></rect>
                        <rect id="Rectangle" x="234.9" y="104.166667" width="8.7" height="8.33333333"></rect>
                        <rect id="Rectangle" x="82.65" y="208.333333" width="8.7" height="8.33333333"></rect>
                        <rect id="Rectangle" x="100.05" y="208.333333" width="34.8" height="8.33333333"></rect>
                        <rect id="Rectangle" x="82.65" y="225" width="34.8" height="8.33333333"></rect>
                        <rect id="Rectangle" x="126.15" y="225" width="8.7" height="8.33333333"></rect>
                    </g>
                </g>
            </g>
        </g>
    </g>
</svg>