<?xml version="1.0" encoding="UTF-8"?>
<svg width="375px" height="379px" viewBox="0 0 375 379" version="1.1" xmlns="http://www.w3.org/2000/svg" xmlns:xlink="http://www.w3.org/1999/xlink">
    <!-- Generator: Sketch 52.6 (67491) - http://www.bohemiancoding.com/sketch -->
    <title>noun_marketing_1193268</title>
    <desc>Created with Sketch.</desc>
    <g id="Page-1" stroke="none" stroke-width="1" fill="none" fill-rule="evenodd">
        <g id="Artboard-Copy-8" transform="translate(-1181.000000, -11540.000000)" fill="#FFFFFF">
            <g id="Group-8" transform="translate(1064.000000, 11540.000000)">
                <g id="noun_marketing_1193268" transform="translate(117.000000, 0.000000)">
                    <g id="Group">
                        <g>
                            <g>
                                <ellipse id="Oval" cx="47.6299341" cy="63.1666667" rx="15.8766447" ry="15.7916667"></ellipse>
                                <path d="M150.828125,284.25 C137.675482,284.25 127.013158,273.644745 127.013158,260.5625 C127.013158,247.480255 137.675482,236.875 150.828125,236.875 C163.980767,236.875 174.643092,247.480255 174.643092,260.5625 C174.643092,273.644745 163.980767,284.25 150.828125,284.25 Z M150.828125,268.458333 C155.212339,268.458333 158.766447,264.923249 158.766447,260.5625 C158.766447,256.201751 155.212339,252.666667 150.828125,252.666667 C146.44391,252.666667 142.889802,256.201751 142.889802,260.5625 C142.889802,264.923249 146.44391,268.458333 150.828125,268.458333 Z" id="Shape" fill-rule="nonzero"></path>
                                <path d="M87.3215459,236.875 C74.1689028,236.875 63.5065788,226.269745 63.5065788,213.1875 C63.5065788,200.105255 74.1689028,189.5 87.3215459,189.5 C100.474189,189.5 111.136513,200.105255 111.136513,213.1875 C111.136513,226.269745 100.474189,236.875 87.3215459,236.875 Z M87.3215459,221.083333 C91.7057602,221.083333 95.2598682,217.548249 95.2598682,213.1875 C95.2598682,208.826751 91.7057602,205.291667 87.3215459,205.291667 C82.9373316,205.291667 79.3832235,208.826751 79.3832235,213.1875 C79.3832235,217.548249 82.9373316,221.083333 87.3215459,221.083333 Z" id="Shape" fill-rule="nonzero"></path>
                                <path d="M142.889802,142.125 C125.352945,142.125 111.136513,127.98466 111.136513,110.541667 C111.136513,93.0986733 125.352945,78.9583333 142.889802,78.9583333 C160.42666,78.9583333 174.643092,93.0986733 174.643092,110.541667 C174.643092,127.98466 160.42666,142.125 142.889802,142.125 Z M142.889802,126.333333 C151.658231,126.333333 158.766447,119.263163 158.766447,110.541667 C158.766447,101.82017 151.658231,94.75 142.889802,94.75 C134.121374,94.75 127.013158,101.82017 127.013158,110.541667 C127.013158,119.263163 134.121374,126.333333 142.889802,126.333333 Z" id="Shape" fill-rule="nonzero"></path>
                                <path d="M31.7532894,189.5 C14.2164319,189.5 0,175.35966 0,157.916667 C0,140.473673 14.2164319,126.333333 31.7532894,126.333333 C49.2901469,126.333333 63.5065788,140.473673 63.5065788,157.916667 C63.5065788,175.35966 49.2901469,189.5 31.7532894,189.5 Z M31.7532894,173.708333 C40.5217182,173.708333 47.6299341,166.638163 47.6299341,157.916667 C47.6299341,149.19517 40.5217182,142.125 31.7532894,142.125 C22.9848607,142.125 15.8766447,149.19517 15.8766447,157.916667 C15.8766447,166.638163 22.9848607,173.708333 31.7532894,173.708333 Z" id="Shape" fill-rule="nonzero"></path>
                                <g transform="translate(79.383224, 0.000000)">
                                    <path d="M-8.32667268e-16,174.49806 L1.15059643e-14,15.7916667 C1.04321415e-14,7.07016999 7.10821595,1.60211295e-15 15.8766447,0 L206.396381,0 C215.164809,-1.60211295e-15 222.273026,7.07016999 222.273026,15.7916667 L222.273026,63.1666667 L206.396381,63.1666667 L206.396381,15.7916667 L15.8766447,15.7916667 L15.8766447,174.49806 C13.3116938,173.980188 10.6569266,173.708333 7.93832235,173.708333 C5.21971814,173.708333 2.56495086,173.980188 -8.32667268e-16,174.49806 Z M-8.32667268e-16,251.87694 L1.23872951e-14,363.208333 C1.34611179e-14,371.929829 7.10821595,379 15.8766447,379 L206.396381,379 C215.164809,379 222.273026,371.929829 222.273026,363.208333 L222.273026,268.458333 L206.396381,268.458333 L206.396381,363.208333 L15.8766447,363.208333 L15.8766447,251.87694 C13.3116938,252.394812 10.6569266,252.666667 7.93832235,252.666667 C5.21971814,252.666667 2.56495086,252.394812 -8.32667268e-16,251.87694 Z" id="Shape" fill-rule="nonzero"></path>
                                    <rect id="Rectangle" x="0" y="300.041667" width="222.273026" height="15.7916667"></rect>
                                    <rect id="Rectangle" x="0" y="31.5833333" width="222.273026" height="15.7916667"></rect>
                                    <ellipse id="Oval" cx="111.136513" cy="339.520833" rx="15.8766447" ry="15.7916667"></ellipse>
                                </g>
                                <g transform="translate(277.206159, 174.680454) rotate(-25.000000) translate(-277.206159, -174.680454) translate(175.206159, 95.680454)" id="Path">
                                    <path d="M43.5769849,142.125 L29.4830383,100.144914 C28.0943861,96.008689 23.5975445,93.7753156 19.4390615,95.1565351 C15.2805786,96.5377547 13.035187,101.010527 14.4238392,105.146753 L29.2854338,149.413347 C30.9267189,154.302062 35.7324697,157.916667 40.9823863,157.916667 L66.1169801,157.916667 C73.4061355,157.916667 77.9834242,151.139656 75.729993,144.415546 L60.8950592,100.148952 C59.5086488,96.0119825 55.0130184,93.7761983 50.8537875,95.1551881 C46.6945565,96.5341779 44.4467411,101.005746 45.8331515,105.142715 L58.2269162,142.125 L43.5769849,142.125 Z"></path>
                                    <path d="M15.8766447,94.75 L15.8766447,47.375 L79.3832235,47.375 L79.3832235,31.5833333 L12.7116375,31.5833333 C5.68903688,31.5833333 3.73034936e-14,37.222179 3.73034936e-14,44.2269331 L3.73034936e-14,97.8980669 C3.73034936e-14,104.88308 5.66918942,110.541667 12.7116375,110.541667 L79.3832235,110.541667 L79.3832235,94.75 L15.8766447,94.75 Z"></path>
                                    <path d="M79.3832235,100.738536 L138.209092,127.068535 L131.693868,141.469291 L72.5523538,114.998012 C67.1919859,112.598753 63.5065788,106.837461 63.5065788,101.068001 L63.5065788,41.1364923 C63.5065788,35.287727 67.2648081,29.5731453 72.5523538,27.2064812 L131.693868,0.735201613 L138.209092,15.1359579 L79.3832235,41.4659567 L79.3832235,100.738536 Z"></path>
                                    <path d="M127.013158,7.89583333 L127.013158,134.229167 C127.013158,138.589915 130.567266,142.125 134.95148,142.125 C139.335694,142.125 142.889802,138.589915 142.889802,134.229167 L142.889802,7.89583333 C142.889802,3.53508499 139.335694,-2.84217094e-13 134.95148,-2.84217094e-13 C130.567266,-2.84217094e-13 127.013158,3.53508499 127.013158,7.89583333 Z"></path>
                                    <path d="M179.935306,78.9583333 L195.811951,78.9583333 C200.196166,78.9583333 203.750273,75.4232483 203.750273,71.0625 C203.750273,66.7017517 200.196166,63.1666667 195.811951,63.1666667 L179.935306,63.1666667 C175.551093,63.1666667 171.996984,66.7017517 171.996984,71.0625 C171.996984,75.4232483 175.551093,78.9583333 179.935306,78.9583333 Z"></path>
                                    <path d="M172.208113,40.9224517 L186.59724,34.248605 C190.570688,32.4056732 192.289771,27.7078066 190.436922,23.7556265 C188.584073,19.8034463 183.860927,18.0935626 179.887479,19.9364945 L165.498352,26.6103412 C161.524905,28.4532732 159.80582,33.1511396 161.65867,37.1033199 C163.511519,41.0555 168.234665,42.7653836 172.208113,40.9224517 Z"></path>
                                    <path d="M165.498933,115.582388 L179.88806,122.256234 C183.861507,124.099166 188.584654,122.389282 190.437503,118.437102 C192.290352,114.484922 190.571267,109.787056 186.597819,107.944124 L172.208692,101.270277 C168.235246,99.4273451 163.512098,101.137229 161.659249,105.089409 C159.806401,109.041589 161.525486,113.739456 165.498933,115.582388 Z"></path>
                                </g>
                            </g>
                        </g>
                    </g>
                </g>
            </g>
        </g>
    </g>
</svg>