<?xml version="1.0" encoding="UTF-8"?>
<svg width="225px" height="379px" viewBox="0 0 225 379" version="1.1" xmlns="http://www.w3.org/2000/svg" xmlns:xlink="http://www.w3.org/1999/xlink">
    <!-- Generator: Sketch 52.6 (67491) - http://www.bohemiancoding.com/sketch -->
    <title>noun_iPhone_2814560</title>
    <desc>Created with Sketch.</desc>
    <g id="Page-1" stroke="none" stroke-width="1" fill="none" fill-rule="evenodd">
        <g id="Artboard-Copy-8" transform="translate(-2024.000000, -11540.000000)" fill="#FFFFFF">
            <g id="Group-7" transform="translate(1935.000000, 11540.000000)">
                <g id="noun_iPhone_2814560" transform="translate(89.000000, 0.000000)">
                    <g id="Group">
                        <path d="M195.060741,0 L29.9392593,0 C13.4187037,0 0.00888888889,13.4334444 0.00888888889,29.9831111 L0.00888888889,348.932667 C0.00888888889,365.482333 13.4187037,378.915778 29.9392593,378.915778 L195.060741,378.915778 C211.581296,378.915778 224.991111,365.482333 224.991111,348.932667 L224.991111,29.9831111 C224.991111,13.4334444 211.581296,0 195.060741,0 Z M211.160926,348.722111 C211.160926,357.733889 203.846481,365.061222 194.850556,365.061222 L30.1494444,365.061222 C21.1535185,365.061222 13.8390741,357.733889 13.8390741,348.722111 L13.8390741,30.1936667 C13.8390741,21.1818889 21.1535185,13.8545556 30.1494444,13.8545556 L67.6044444,13.8545556 L67.6044444,21.5187778 C67.6044444,26.909 71.9762963,31.2885556 77.357037,31.2885556 L147.642963,31.2885556 C153.023704,31.2885556 157.395556,26.909 157.395556,21.5187778 L157.395556,13.8545556 L194.850556,13.8545556 C203.846481,13.8545556 211.160926,21.1818889 211.160926,30.1936667 L211.160926,348.722111 Z" id="Shape" fill-rule="nonzero"></path>
                        <path d="M146.213704,349.606444 L78.7862963,349.606444 C77.1048148,349.606444 75.7596296,350.954 75.7596296,352.638444 C75.7596296,354.322889 77.1048148,355.670444 78.7862963,355.670444 L146.171667,355.670444 C147.853148,355.670444 149.198333,354.322889 149.198333,352.638444 C149.198333,350.954 147.853148,349.606444 146.213704,349.606444 Z" id="Path"></path>
                    </g>
                </g>
            </g>
        </g>
    </g>
</svg>